<?xml version="1.0" encoding="iso-8859-1"?>
<!-- Uploaded to: SVG Repo, www.svgrepo.com, Generator: SVG Repo Mixer Tools -->
<svg height="800px" width="800px" version="1.1" id="Layer_1" xmlns="http://www.w3.org/2000/svg" xmlns:xlink="http://www.w3.org/1999/xlink" 
	 viewBox="0 0 511.999 511.999" xml:space="preserve">
<g>
	<path style="fill:#CEE8FA;" d="M302.364,473.19L39.69,210.515c-12.171,31.195-18.496,62.632-20.758,92.288l191.299,191.299
		C239.829,491.806,271.205,485.42,302.364,473.19z"/>
	<path style="fill:#CEE8FA;" d="M473.389,301.95c12.182-31.207,18.496-62.656,20.746-92.3L302.556,18.073
		c-29.537,2.26-60.889,8.647-92.072,20.974L473.389,301.95z"/>
</g>
<g>
	<path style="fill:#2D527C;" d="M507.96,199.787c-0.015-0.022-0.032-0.046-0.049-0.068c-0.27-0.376-0.551-0.742-0.854-1.095
		c-0.15-0.179-0.31-0.349-0.468-0.52c-0.146-0.158-0.277-0.327-0.43-0.48l-163.3-163.303c55.581,2.526,95.741,19.135,105.984,29.379
		c6.643,6.643,17.409,6.643,24.054,0c6.641-6.641,6.641-17.411,0-24.052C449.246,15.998,378.539-4.917,301.163,1.02
		c-33.806,2.587-66.448,10.028-97.035,22.117C163.47,39.231,126.846,63.398,95.274,94.968
		c-31.471,31.471-55.536,68.236-71.525,109.268c-11.929,30.574-19.287,63.27-21.87,97.178
		c-5.905,77.411,14.723,147.824,38.076,171.174c20.783,20.781,78.153,39.413,144.496,39.412c8.281,0,16.717-0.304,25.226-0.917
		c0.185,0.007,0.369,0.027,0.556,0.027c0.439,0,0.879-0.017,1.316-0.051c33.818-2.624,66.462-10.04,97.031-22.038
		c0.702-0.275,1.376-0.6,2.026-0.961c40.024-16.035,76.01-39.832,106.971-70.792c30.957-30.957,54.725-66.993,70.705-107.115
		c0.357-0.648,0.679-1.32,0.951-2.019c11.932-30.568,19.288-63.27,21.862-97.2C511.397,206.937,510.256,203.005,507.96,199.787z
		 M465.965,270.474L241.77,46.277c17.553-5.138,35.748-8.674,54.378-10.562l180.244,180.242
		C474.52,234.661,471.031,252.896,465.965,270.474z M216.529,476.346L36.572,296.39c1.878-18.691,5.373-36.92,10.443-54.497
		l223.92,223.919C253.367,470.919,235.169,474.443,216.529,476.346z M35.16,343.084l134.613,134.613
		c-55.523-2.464-95.576-18.97-105.766-29.161C53.928,438.457,37.604,398.586,35.16,343.084z M393.521,393.217
		c-25.53,25.53-54.856,45.595-87.283,59.795L59.655,206.428c14.155-32.547,34.18-61.918,59.673-87.409
		c25.591-25.591,54.865-45.715,87.119-59.962L453.23,305.841C439.076,338.341,419.039,367.699,393.521,393.217z"/>
	<path style="fill:#2D527C;" d="M307.555,205.029c-0.007-0.007-0.012-0.015-0.019-0.022c-0.007-0.007-0.015-0.012-0.022-0.019
		l-24.032-24.032c-6.641-6.641-17.407-6.641-24.054,0c-6.641,6.641-6.641,17.411,0,24.052l12.026,12.026l-15.031,15.031
		l-12.026-12.026c-6.643-6.641-17.409-6.641-24.054,0c-6.641,6.641-6.641,17.411,0,24.054l12.026,12.026l-15.031,15.031
		l-12.026-12.026c-6.643-6.641-17.409-6.641-24.054,0c-6.641,6.641-6.641,17.411,0,24.054l48.104,48.104
		c3.322,3.322,7.674,4.982,12.026,4.982c4.352,0,8.704-1.66,12.026-4.982c6.641-6.641,6.641-17.411,0-24.054l-12.026-12.026
		l15.031-15.031l12.026,12.026c3.322,3.322,7.674,4.982,12.026,4.982s8.704-1.66,12.026-4.982c6.641-6.641,6.641-17.411,0-24.054
		l-12.026-12.026l15.031-15.031l12.026,12.026c3.322,3.322,7.674,4.982,12.026,4.982s8.704-1.662,12.026-4.982
		c6.641-6.641,6.641-17.411,0-24.052L307.555,205.029z"/>
</g>
</svg>