<?xml version="1.0" encoding="iso-8859-1"?>
<!DOCTYPE svg PUBLIC "-//W3C//DTD SVG 1.1//EN" "http://www.w3.org/Graphics/SVG/1.1/DTD/svg11.dtd">
<svg fill="#eeeeee" version="1.1" id="Capa_1" xmlns="http://www.w3.org/2000/svg" xmlns:xlink="http://www.w3.org/1999/xlink" 
	 width="800px" height="800px" viewBox="0 0 122.582 122.582"
	 xml:space="preserve">
<g>
	<g>
		<polygon points="62.293,62.83 51.59,62.83 51.59,66.141 62.293,66.141 62.293,117.393 82.424,117.393 82.424,114.081 
			65.603,114.081 65.603,66.141 79.454,66.141 79.454,62.83 65.603,62.83 65.603,17.094 82.424,17.094 82.424,13.783 62.293,13.783 
					"/>
		<path d="M30.205,34.252c4.82,0,8.729-3.907,8.729-8.73c0-4.824-3.909-8.731-8.729-8.731c-4.824,0-8.733,3.907-8.733,8.731
			C21.472,30.345,25.381,34.252,30.205,34.252z"/>
		<path d="M36.011,36.378c-0.146-0.091-0.299-0.153-0.451-0.218c-0.975-0.649-2.066-1.128-3.182-1.401l-2.173,2.19l-2.109-2.214
			c-0.009,0-0.014,0.002-0.022,0.004c-1.117,0.268-2.216,0.741-3.193,1.389c-0.174,0.071-0.347,0.148-0.515,0.25
			c-6.778,4.157-10.673,7.446-11.874,26.687c-0.117,1.869,1.305,3.479,3.172,3.597c0.075,0.004,0.146,0.006,0.215,0.006
			c1.776,0,3.269-1.381,3.381-3.179c0.406-6.496,1.063-10.705,2.008-13.608v11.746c0,0.912,0.177,1.761,0.487,2.543
			c-0.024,0.177-0.041,0.356-0.041,0.537l0.005,32.464c0,2.213,1.793,4.004,4.005,4.004c2.214,0,4.006-1.793,4.006-4.007
			l-0.003-27.856c0.16,0.006,0.319,0.02,0.479,0.02c0.03,0,0.062-0.004,0.093-0.004v27.842c0,2.214,1.792,4.007,4.004,4.007
			c2.214,0,4.006-1.793,4.006-4.007l0.003-32.261c0.524-0.974,0.831-2.073,0.831-3.28V49.978c0.928,2.899,1.574,7.087,1.976,13.51
			c0.112,1.798,1.604,3.179,3.381,3.179c0.069,0,0.142-0.002,0.212-0.006c1.869-0.116,3.289-1.728,3.174-3.597
			C46.683,43.824,42.789,40.535,36.011,36.378z M30.225,54.23h-0.042l-2.104-2.88l2.104-14.076h0.042l2.105,14.077L30.225,54.23z"/>
		<circle cx="97.39" cy="6.719" r="6.719"/>
		<path d="M95.754,26.595l1.618-10.831h0.031l1.621,10.831l0.194,0.972h10.877c-1.435-7.893-4.157-9.987-8.239-12.492
			c-0.111-0.068-0.229-0.118-0.347-0.168c-0.75-0.5-1.591-0.866-2.448-1.078l-1.672,1.685l-1.623-1.702
			c-0.007,0-0.011,0-0.018,0.002c-0.859,0.205-1.705,0.571-2.457,1.069c-0.133,0.054-0.268,0.114-0.396,0.191
			c-4.082,2.505-6.805,4.6-8.237,12.492H95.58L95.754,26.595z"/>
		<circle cx="97.388" cy="51.597" r="6.719"/>
		<path d="M101.856,59.95c-0.111-0.068-0.229-0.116-0.347-0.168c-0.75-0.498-1.591-0.866-2.448-1.077L97.39,60.39l-1.623-1.702
			c-0.007,0-0.011,0.002-0.018,0.002c-0.859,0.207-1.705,0.571-2.457,1.069c-0.133,0.054-0.268,0.114-0.396,0.191
			c-4.082,2.505-6.805,4.602-8.237,12.491H95.58l0.175-0.969l1.618-10.833h0.032l1.62,10.833l0.194,0.969h10.877
			C108.662,64.552,105.938,62.455,101.856,59.95z"/>
		<circle cx="97.388" cy="101.735" r="6.719"/>
		<path d="M101.856,110.09c-0.111-0.068-0.229-0.119-0.347-0.168c-0.75-0.5-1.591-0.867-2.448-1.078l-1.673,1.687l-1.623-1.702
			c-0.007,0-0.011,0-0.018,0.002c-0.859,0.204-1.705,0.57-2.457,1.068c-0.133,0.055-0.268,0.113-0.396,0.191
			c-4.082,2.504-6.805,4.6-8.237,12.492h10.922l0.175-0.973l1.618-10.83h0.031l1.621,10.83l0.194,0.973h10.877
			C108.662,114.689,105.938,112.594,101.856,110.09z"/>
	</g>
</g>
</svg>