<?xml version="1.0" encoding="utf-8"?>
<svg fill="#5c666d" width="800px" height="800px" viewBox="0 0 32 32" version="1.1" xmlns="http://www.w3.org/2000/svg">
<title>broken-bone</title>
<path d="M20.889 17.718l-3.247-1.7 0.361 2.165-2.499-0.851c4.393 3.086 7.374 6.972 10.101 11.905 1.414 2.557 4.487 0.403 2.139-2.139 2.583 2.12 4.873-1.559 2.551-2.551-3.973-1.698-7.366-3.912-9.406-6.829v0zM1.050 19.081c-0.86 1.289 0.517 3.183 3.39 2.082-3.464 2.079-0.516 5.066 1.567 2.714 2.137-2.412 4.677-4.651 7.347-5.714l0.792-1.762-2.047 0.391 3.022-3.732c-3.721 2.619-7.76 4.679-12.43 5.073-0.823 0.069-1.355 0.518-1.642 0.947zM17.696 12.792l2.717-6.478-1.602-5.045-2.071 8.409 0.956 3.114zM26.352 18.285l-7.51-3.853 6.983 0.538 0.527 3.315zM15.851 11.897l-5.785-9.185 0.127 6.907 5.658 2.278zM14.292 18.941l-3.76 4.946 2.918-0.643 0.842-4.303zM19.478 13.151l5.321-2.434-3.478-0.098-1.843 2.532zM15.475 18.998l1.185 7.387 2.272-1.224-3.457-6.163z"></path>
</svg>